<svg width="54" height="40" viewBox="0 0 54 40" fill="none" xmlns="http://www.w3.org/2000/svg">
<g clip-path="url(#clip0_779_503)">
<path d="M6.66625 5C5.74964 5 4.99969 5.75 4.99969 6.66667V8.96875L22.9673 23.7188C25.1234 25.4896 28.217 25.4896 30.3731 23.7188L48.3303 8.96875V6.66667C48.3303 5.75 47.5804 5 46.6637 5H6.66625ZM4.99969 15.4375V33.3333C4.99969 34.25 5.74964 35 6.66625 35H46.6637C47.5804 35 48.3303 34.25 48.3303 33.3333V15.4375L33.5396 27.5833C29.5398 30.8646 23.7798 30.8646 19.7904 27.5833L4.99969 15.4375ZM0 6.66667C0 2.98958 2.9894 0 6.66625 0H46.6637C50.3406 0 53.33 2.98958 53.33 6.66667V33.3333C53.33 37.0104 50.3406 40 46.6637 40H6.66625C2.9894 40 0 37.0104 0 33.3333V6.66667Z" fill="white"/>
</g>
<defs>
<clipPath id="clip0_779_503">
<rect width="53.33" height="40" fill="white"/>
</clipPath>
</defs>
</svg>
